#!OML:ASF F:\VICON\USERDATA\INSTALL\rory3\rory3.ASF
:FULLY-SPECIFIED
:DEGREES
1577
root 0.912622 15.7259 -3.13117 347.79 13.9073 1.7716
lowerback 20.1621 0.792816 -3.93605
upperback 11.0326 0.476676 -0.891767
thorax 0.653116 0.144453 1.18929
lowerneck -14.8805 -5.84555 -13.7294
upperneck 29.4106 -5.52917 3.76692
head 12.8475 -3.4541 2.92881
rclavicle -3.8763e-015 1.19271e-015
rhumerus -5.4654 21.193 -79.1616
rradius 67.1012
rwrist 30.021
rhand -33.36 17.1362
rfingers 7.12502
rthumb -6.56178 -12.7421
lclavicle -3.8763e-015 1.19271e-015
lhumerus -28.3036 -25.9397 87.1959
lradius 67.2883
lwrist 5.23635
lhand -28.5973 7.92288
lfingers 7.12502
lthumb -1.96277 37.8936
rfemur -79.9492 -33.0272 18.4429
rtibia 142.695
rfoot -5.0973 2.24755
rtoes 7.97548
lfemur -31.4155 9.18166 -15.7424
ltibia 42.435
lfoot 3.09407 -21.3188
ltoes -19.542
1578
root 0.907751 15.7179 -3.13646 348.045 13.8595 1.29636
lowerback 20.311 0.802513 -3.62861
upperback 10.9148 0.53044 -0.821206
thorax 0.445105 0.186503 1.07907
lowerneck -14.8551 -5.72612 -13.7068
upperneck 29.4357 -5.38952 3.84478
head 12.8375 -3.38093 2.98011
rclavicle -1.32192e-014 -3.18055e-015
rhumerus -5.65417 20.9042 -79.2974
rradius 67.3428
rwrist 30.2777
rhand -33.3021 17.0364
rfingers 7.12502
rthumb -6.5059 -12.8437
lclavicle -1.32192e-014 -3.18055e-015
lhumerus -28.3029 -26.3661 87.1028
lradius 67.2927
lwrist 5.24606
lhand -28.7228 7.97136
lfingers 7.12502
lthumb -2.08397 37.9409
rfemur -80.6973 -32.5749 19.4803
rtibia 142.706
rfoot -5.00975 1.7936
rtoes 7.90315
lfemur -31.9645 9.13997 -15.3112
ltibia 42.5392
lfoot 2.94094 -21.2225
ltoes -19.6074
1579
root 0.90674 15.7181 -3.13976 348.253 13.8862 0.998433
lowerback 20.4989 0.778438 -3.47312
upperback 10.812 0.51422 -0.78908
thorax 0.238682 0.187632 1.02692
lowerneck -15.0339 -5.55546 -13.5118
upperneck 29.6818 -5.09453 3.60916
head 12.9314 -3.26379 2.90449
rclavicle 1.44119e-014 -1.23246e-014
rhumerus -5.92825 20.8428 -79.3983
rradius 67.6648
rwrist 30.5444
rhand -33.2578 17.0209
rfingers 7.12502
rthumb -6.46305 -12.8605
lclavicle 1.44119e-014 -1.23246e-014
lhumerus -28.401 -26.637 87.083
lradius 67.3331
lwrist 5.22546
lhand -28.8963 8.01401
lfingers 7.12502
lthumb -2.25151 37.9819
rfemur -81.1218 -32.3841 20.0864
rtibia 142.681
rfoot -5.00157 1.58504
rtoes 7.82004
lfemur -32.3613 9.03263 -15.103
ltibia 42.6504
lfoot 2.85488 -21.0665
ltoes -19.1597
1580
root 0.908183 15.7255 -3.13749 348.456 13.9382 0.877695
lowerback 20.5915 0.78561 -3.50956
upperback 10.7399 0.510637 -0.790003
thorax 0.113964 0.186655 1.04639
lowerneck -15.3791 -5.36312 -13.0202
upperneck 30.1278 -4.70951 3.0043
head 13.118 -3.12557 2.64818
rclavicle 7.15625e-015 -1.07344e-014
rhumerus -6.26847 20.8464 -79.4603
rradius 68.0447
rwrist 30.7981
rhand -33.3752 17.2654
rfingers 7.12502
rthumb -6.57643 -12.6125
lclavicle 7.15625e-015 -1.07344e-014
lhumerus -28.5264 -26.9871 87.1024
lradius 67.3458
lwrist 5.32984
lhand -29.1513 8.08053
lfingers 7.12502
lthumb -2.49778 38.0456
rfemur -81.3015 -32.3495 20.3179
rtibia 142.633
rfoot -5.05571 1.64879
rtoes 7.47314
lfemur -32.6289 8.93218 -15.1113
ltibia 42.7184
lfoot 2.68292 -20.9522
ltoes -18.9119
1581
root 0.910464 15.7351 -3.13553 348.645 13.959 0.786005
lowerback 20.6219 0.848905 -3.5574
upperback 10.7613 0.584371 -0.800735
thorax 0.119401 0.221993 1.04716
lowerneck -15.8155 -5.18221 -12.7285
upperneck 30.5393 -4.41912 2.86343
head 13.3405 -2.99135 2.59074
rclavicle 2.3556e-014 -2.38542e-014
rhumerus -6.58289 20.7272 -79.4465
rradius 68.5308
rwrist 31.0897
rhand -33.5662 17.5059
rfingers 7.12502
rthumb -6.76084 -12.3661
lclavicle 2.3556e-014 -2.38542e-014
lhumerus -28.397 -27.5266 87.0299
lradius 67.2975
lwrist 5.47062
lhand -29.3394 8.01525
lfingers 7.12502
lthumb -2.67951 37.9782
rfemur -81.4542 -32.2588 20.5074
rtibia 142.577
rfoot -5.12221 1.69206
rtoes 7.10603
lfemur -32.8378 8.82682 -15.1171
ltibia 42.724
lfoot 2.52427 -20.8556
ltoes -19.0256
1582
root 0.913098 15.7452 -3.13487 348.82 13.9735 0.724044
lowerback 20.7325 0.8924 -3.65702
upperback 10.78 0.619852 -0.787959
thorax 0.0833437 0.235924 1.10909
lowerneck -16.0838 -5.00767 -12.7839
upperneck 30.7444 -4.16887 3.05505
head 13.4653 -2.86748 2.71811
rclavicle 1.51076e-014 -2.66371e-014
rhumerus -6.87183 20.7975 -79.3442
rradius 69.0853
rwrist 31.2892
rhand -33.6108 17.5278
rfingers 7.12502
rthumb -6.80383 -12.3429
lclavicle 1.51076e-014 -2.66371e-014
lhumerus -28.3195 -27.7855 87.0306
lradius 67.3292
lwrist 5.45478
lhand -29.3768 7.90845
lfingers 7.12502
lthumb -2.71562 37.8709
rfemur -81.6169 -32.1582 20.6446
rtibia 142.516
rfoot -5.11744 1.72972
rtoes 7.39831
lfemur -33.0262 8.69253 -15.1259
ltibia 42.6954
lfoot 2.7346 -20.5793
ltoes -18.0069
